<svg xmlns="http://www.w3.org/2000/svg" style="display:none">
  <!-- TAKSI IKON SETI v1.0 -->
  <!-- Ana Navigasyon -->
  <symbol id="ic-home" viewBox="0 0 24 24" fill="none" stroke="currentColor" stroke-width="2"><path d="M3 12l2-2m0 0l7-7 7 7M5 10v10a1 1 0 001 1h3m10-11l2 2m-2-2v10a1 1 0 01-1 1h-3m-6 0a1 1 0 001-1v-4a1 1 0 011-1h2a1 1 0 011 1v4a1 1 0 001 1m-6 0h6"/></symbol>
  <symbol id="ic-search" viewBox="0 0 24 24" fill="none" stroke="currentColor" stroke-width="2"><circle cx="10" cy="10" r="7"/><path d="M21 21l-6-6"/></symbol>
  <symbol id="ic-user" viewBox="0 0 24 24" fill="none" stroke="currentColor" stroke-width="2"><path d="M20 21v-2a4 4 0 00-4-4H8a4 4 0 00-4 4v2"/><circle cx="12" cy="7" r="4"/></symbol>
  <symbol id="ic-settings" viewBox="0 0 24 24" fill="none" stroke="currentColor" stroke-width="2"><circle cx="12" cy="12" r="3"/><path d="M12 1v2m0 18v2M4.22 4.22l1.42 1.42m12.72 12.72l1.42 1.42M1 12h2m18 0h2M4.22 19.78l1.42-1.42M18.36 5.64l1.42-1.42"/></symbol>
  <symbol id="ic-arrow-left" viewBox="0 0 24 24" fill="none" stroke="currentColor" stroke-width="2"><path d="M19 12H5m7 7l-7-7 7-7"/></symbol>

  <!-- Taksi & Ulasim -->
  <symbol id="ic-taxi" viewBox="0 0 24 24" fill="none" stroke="currentColor" stroke-width="2">
    <path d="M3 17h18M5 17a2 2 0 01-2-2V9l2-4h4l2 4h6l2-4h4l2 4v6a2 2 0 01-2 2"/>
    <circle cx="7" cy="17" r="2" fill="currentColor"/><circle cx="17" cy="17" r="2" fill="currentColor"/>
  </symbol>
  <symbol id="ic-taxi-front" viewBox="0 0 24 24" fill="none" stroke="currentColor" stroke-width="1.5">
    <path d="M4 16c0-2.8.5-5 2-7l1.5-2.5A3 3 0 0110 5h4a3 3 0 012.5 1.5L18 9c1.5 2 2 4.2 2 7v2a1 1 0 01-1 1H5a1 1 0 01-1-1v-2z"/>
    <rect x="6" y="10" width="12" height="3" rx="1"/>
    <path d="M8 5l-2 4m10-4l2 4"/><circle cx="8" cy="17" r="1.5" fill="currentColor"/><circle cx="16" cy="17" r="1.5" fill="currentColor"/>
  </symbol>
  <symbol id="ic-pin" viewBox="0 0 24 24" fill="none" stroke="currentColor" stroke-width="2"><circle cx="12" cy="10" r="3"/><path d="M12 21s-8-7-8-11a8 8 0 1116 0c0 4-8 11-8 11z"/></symbol>
  <symbol id="ic-pin-green" viewBox="0 0 24 24" fill="none" stroke="#10b981" stroke-width="2"><circle cx="12" cy="10" r="3" fill="#10b981"/><path d="M12 21s-8-7-8-11a8 8 0 1116 0c0 4-8 11-8 11z" stroke="#10b981"/></symbol>
  <symbol id="ic-pin-red" viewBox="0 0 24 24" fill="none" stroke="#ef4444" stroke-width="2"><circle cx="12" cy="10" r="3" fill="#ef4444"/><path d="M12 21s-8-7-8-11a8 8 0 1116 0c0 4-8 11-8 11z" stroke="#ef4444"/></symbol>
  <symbol id="ic-navigate" viewBox="0 0 24 24" fill="none" stroke="currentColor" stroke-width="2"><path d="M3 11l7 3 3 7 8-18z"/></symbol>
  <symbol id="ic-compass" viewBox="0 0 24 24" fill="none" stroke="currentColor" stroke-width="2"><circle cx="12" cy="12" r="9"/><path d="M12 2v2m0 16v2M2 12h2m16 0h2M12 7l2 5-5 2 2-5z"/></symbol>
  <symbol id="ic-route" viewBox="0 0 24 24" fill="none" stroke="currentColor" stroke-width="2"><path d="M5 19l14-14"/><circle cx="5" cy="19" r="3" fill="currentColor"/><circle cx="19" cy="5" r="3" fill="currentColor"/></symbol>
  <symbol id="ic-car" viewBox="0 0 24 24" fill="none" stroke="currentColor" stroke-width="2">
    <path d="M5 17h14M5 17a2 2 0 01-2-2V9l2-4h2l1.5 3h6.5l1.5-3h2l2 4v6a2 2 0 01-2 2"/>
    <circle cx="7" cy="17" r="2"/><circle cx="17" cy="17" r="2"/>
  </symbol>
  <symbol id="ic-gas" viewBox="0 0 24 24" fill="none" stroke="currentColor" stroke-width="2"><path d="M14 2H6a2 2 0 00-2 2v16a2 2 0 002 2h8a2 2 0 002-2V4a2 2 0 00-2-2z"/><path d="M14 8h4a2 2 0 012 2v2a2 2 0 01-2 2h-4"/><path d="M14 14h4"/></symbol>

  <!-- Odeme & Para -->
  <symbol id="ic-wallet" viewBox="0 0 24 24" fill="none" stroke="currentColor" stroke-width="2"><rect x="1" y="5" width="22" height="16" rx="2"/><path d="M1 5l3-3h16l3 3"/><circle cx="16" cy="13" r="2"/></symbol>
  <symbol id="ic-card" viewBox="0 0 24 24" fill="none" stroke="currentColor" stroke-width="2"><rect x="2" y="4" width="20" height="16" rx="2"/><path d="M2 10h20"/></symbol>
  <symbol id="ic-cash" viewBox="0 24 24" fill="none" stroke="currentColor" stroke-width="2"><rect x="2" y="6" width="20" height="12" rx="2"/><circle cx="12" cy="12" r="3"/></symbol>
  <symbol id="ic-dollar" viewBox="0 0 24 24" fill="none" stroke="currentColor" stroke-width="2"><circle cx="12" cy="12" r="9"/><path d="M15 9a3 3 0 00-3-3h-1a3 3 0 000 6h2a3 3 0 010 6h-1a3 3 0 01-3-3"/></symbol>
  <symbol id="ic-discount" viewBox="0 0 24 24" fill="none" stroke="currentColor" stroke-width="2"><path d="M12 2l1.5 5.5L19 9l-4 3.5L16 19l-4-3-4 3 1-6.5L5 9l5.5-1.5z"/></symbol>

  <!-- Aksiyon & Durum -->
  <symbol id="ic-phone" viewBox="0 0 24 24" fill="none" stroke="currentColor" stroke-width="2"><path d="M22 16.92v3a2 2 0 01-2.18 2 19.8 19.8 0 01-8.63-3.07 19.5 19.5 0 01-6-6 19.8 19.8 0 01-3.07-8.67A2 2 0 014.11 2h3a2 2 0 012 1.72c.127.96.36 1.9.7 2.8a2 2 0 01-.45 2.11L8.09 9.91a16 16 0 006 6l1.27-1.27a2 2 0 012.11-.45c.9.3 1.84.53 2.8.7A2 2 0 0122 16.92z"/></symbol>
  <symbol id="ic-message" viewBox="0 0 24 24" fill="none" stroke="currentColor" stroke-width="2"><path d="M21 15a2 2 0 01-2 2H7l-4 4V5a2 2 0 012-2h14a2 2 0 012 2z"/></symbol>
  <symbol id="ic-shield" viewBox="0 0 24 24" fill="none" stroke="currentColor" stroke-width="2"><path d="M12 22s8-4 8-10V5l-8-3-8 3v7c0 6 8 10 8 10z"/></symbol>
  <symbol id="ic-shield-check" viewBox="0 0 24 24" fill="none" stroke="currentColor" stroke-width="2"><path d="M12 22s8-4 8-10V5l-8-3-8 3v7c0 6 8 10 8 10z"/><path d="M9 12l2 2 4-4"/></symbol>
  <symbol id="ic-alert" viewBox="0 0 24 24" fill="none" stroke="currentColor" stroke-width="2"><path d="M10.29 3.86L1.82 18a2 2 0 001.71 3h16.94a2 2 0 001.71-3L13.71 3.86a2 2 0 00-3.42 0z"/><path d="M12 9v4"/><path d="M12 17h.01"/></symbol>
  <symbol id="ic-check-circle" viewBox="0 0 24 24" fill="none" stroke="currentColor" stroke-width="2"><circle cx="12" cy="12" r="9"/><path d="M9 12l2 2 4-4"/></symbol>
  <symbol id="ic-x-circle" viewBox="0 0 24 24" fill="none" stroke="currentColor" stroke-width="2"><circle cx="12" cy="12" r="9"/><path d="M15 9l-6 6m0-6l6 6"/></symbol>
  <symbol id="ic-loader" viewBox="0 0 24 24" fill="none" stroke="currentColor" stroke-width="2"><path d="M21 12a9 9 0 11-6.22-8.56"/></symbol>
  <symbol id="ic-clock" viewBox="0 0 24 24" fill="none" stroke="currentColor" stroke-width="2"><circle cx="12" cy="12" r="9"/><path d="M12 6v6l4 2"/></symbol>
  <symbol id="ic-calendar" viewBox="0 0 24 24" fill="none" stroke="currentColor" stroke-width="2"><rect x="3" y="4" width="18" height="18" rx="2"/><path d="M16 2v4M8 2v4M3 10h18"/></symbol>

  <!-- Degerlendirme -->
  <symbol id="ic-star" viewBox="0 0 24 24" fill="none" stroke="currentColor" stroke-width="2"><polygon points="12 2 15 9 22 9 16.5 14 19 22 12 17 5 22 7.5 14 2 9 9 9 12 2"/></symbol>
  <symbol id="ic-star-filled" viewBox="0 0 24 24" stroke="currentColor" stroke-width="0"><polygon points="12 2 15 9 22 9 16.5 14 19 22 12 17 5 22 7.5 14 2 9 9 9" fill="currentColor"/></symbol>
  <symbol id="ic-heart" viewBox="0 0 24 24" fill="none" stroke="currentColor" stroke-width="2"><path d="M20.84 4.61a5.5 5.5 0 00-7.78 0L12 5.67l-1.06-1.06a5.5 5.5 0 00-7.78 7.78l1.06 1.06L12 21l7.78-7.78 1.06-1.06a5.5 5.5 0 000-7.78z"/></symbol>
  <symbol id="ic-thumbs-up" viewBox="0 0 24 24" fill="none" stroke="currentColor" stroke-width="2"><path d="M14 9V5a3 3 0 00-6 0v4H4a2 2 0 00-2 2v7a2 2 0 002 2h15a2 2 0 002-2l-1-7a2 2 0 00-2-2h-4z"/></symbol>

  <!-- Cihaz & UI -->
  <symbol id="ic-bell" viewBox="0 0 24 24" fill="none" stroke="currentColor" stroke-width="2"><path d="M18 8A6 6 0 006 8c0 7-3 9-3 9h18s-3-2-3-9"/><path d="M13.73 21a2 2 0 01-3.46 0"/></symbol>
  <symbol id="ic-share" viewBox="0 0 24 24" fill="none" stroke="currentColor" stroke-width="2"><circle cx="18" cy="5" r="3"/><circle cx="6" cy="12" r="3"/><circle cx="18" cy="19" r="3"/><path d="M8.59 13.51l6.83 3.98M15.41 6.51l-6.82 3.98"/></symbol>
  <symbol id="ic-info" viewBox="0 0 24 24" fill="none" stroke="currentColor" stroke-width="2"><circle cx="12" cy="12" r="9"/><path d="M12 16v-4"/><path d="M12 8h.01"/></symbol>
  <symbol id="ic-trash" viewBox="0 0 24 24" fill="none" stroke="currentColor" stroke-width="2"><path d="M3 6h18M8 6V4a2 2 0 012-2h4a2 2 0 012 2v2"/><path d="M19 6l-1 14a2 2 0 01-2 2H8a2 2 0 01-2-2L5 6"/></symbol>
  <symbol id="ic-history" viewBox="0 0 24 24" fill="none" stroke="currentColor" stroke-width="2"><circle cx="12" cy="12" r="9"/><path d="M12 6v6l4 2"/></symbol>
  <symbol id="ic-filter" viewBox="0 0 24 24" fill="none" stroke="currentColor" stroke-width="2"><path d="M22 3H2l8 9.46V19l4 2v-8.54L22 3z"/></symbol>
  <symbol id="ic-more" viewBox="0 0 24 24" fill="none" stroke="currentColor" stroke-width="2"><circle cx="12" cy="5" r="1"/><circle cx="12" cy="12" r="1"/><circle cx="12" cy="19" r="1"/></symbol>
  <symbol id="ic-close" viewBox="0 0 24 24" fill="none" stroke="currentColor" stroke-width="2"><path d="M18 6L6 18M6 6l12 12"/></symbol>
  <symbol id="ic-plus" viewBox="0 0 24 24" fill="none" stroke="currentColor" stroke-width="2"><path d="M12 5v14M5 12h14"/></symbol>
  <symbol id="ic-minus" viewBox="0 0 24 24" fill="none" stroke="currentColor" stroke-width="2"><path d="M5 12h14"/></symbol>
  <symbol id="ic-check" viewBox="0 0 24 24" fill="none" stroke="currentColor" stroke-width="2"><path d="M20 6L9 17l-5-5"/></symbol>

  <!-- Surucu & Yolcu -->
  <symbol id="ic-driver" viewBox="0 0 24 24" fill="none" stroke="currentColor" stroke-width="2"><circle cx="12" cy="8" r="4"/><path d="M20 21a8 8 0 00-16 0"/><path d="M15 12l2 3-2 2"/><path d="M9 12l-2 3 2 2"/></symbol>
  <symbol id="ic-passenger" viewBox="0 0 24 24" fill="none" stroke="currentColor" stroke-width="2"><circle cx="12" cy="8" r="4"/><path d="M20 21a8 8 0 00-16 0"/><path d="M10 14l2 2 2-2"/></symbol>
  <symbol id="ic-group" viewBox="0 0 24 24" fill="none" stroke="currentColor" stroke-width="2"><circle cx="9" cy="7" r="4"/><path d="M3 21v-2a4 4 0 014-4h4a4 4 0 014 4v2"/><circle cx="17" cy="7" r="4"/></symbol>

  <!-- Harita -->
  <symbol id="ic-map" viewBox="0 0 24 24" fill="none" stroke="currentColor" stroke-width="2"><path d="M1 6l8-3 6 3 8-3v15l-6 3-6-3-8 3z"/><path d="M9 3v15"/><path d="M15 6v15"/></symbol>
  <symbol id="ic-layers" viewBox="0 0 24 24" fill="none" stroke="currentColor" stroke-width="2"><polygon points="12 2 2 7 12 12 22 7 12 2"/><polyline points="2 17 12 22 22 17"/><polyline points="2 12 12 17 22 12"/></symbol>
  <symbol id="ic-satellite" viewBox="0 0 24 24" fill="none" stroke="currentColor" stroke-width="2"><circle cx="12" cy="12" r="3"/><path d="M12 1v2m0 18v2M4.22 4.22l1.42 1.42m12.72 12.72l1.42 1.42M1 12h2m18 0h2"/></symbol>
</svg>
